<?xml version="1.0" encoding="utf-8"?>
<!-- Generator: Adobe Illustrator 23.0.3, SVG Export Plug-In . SVG Version: 6.00 Build 0)  -->
<svg version="1.1" id="eventfrog_logo_small" xmlns="http://www.w3.org/2000/svg" xmlns:xlink="http://www.w3.org/1999/xlink"
	 x="0px" y="0px" viewBox="0 0 43 28.6" style="enable-background:new 0 0 43 28.6;" xml:space="preserve">
<style type="text/css">
	.st0{fill-rule:evenodd;clip-rule:evenodd;fill:#60BF00;}
</style>
<g>
	<g>
		<path class="st0" d="M36.2,11.2c-2.5,0-4.7-1.9-4.7-4.5s2-4.5,4.7-4.5c1.2,0,2.4,0.5,3.3,1.4c0.9,0.8,1.4,1.9,1.4,3.2
			C40.9,9.1,38.8,11.2,36.2,11.2 M7,11.2c-2.5,0-4.7-2-4.7-4.5S4.4,2.2,7,2.2c1.2,0,2.4,0.5,3.3,1.4c0.9,0.8,1.4,1.9,1.4,3.2
			C11.6,9.1,9.5,11.2,7,11.2 M40.3,11C44,6.2,41.1,0,34.8,0c-2.4,0-5.3,1-8.6,3.3c-1.5-0.6-3-0.9-4.5-0.8h-0.5
			c-1.6,0-3.1,0.2-4.5,0.8C13.6,0.9,10.7,0,8.1,0C1.9,0-1.1,6.2,2.7,11c1.7,2.6-9.3,8,4,9.8c1.7,0.3,6.8,0.7,12.7,0.7h4
			c5.8,0,11-0.3,12.7-0.7C49.7,18.9,38.7,13.6,40.3,11 M36.2,3.6c-0.8,0-1.6,0.3-2.2,0.9s-0.9,1.4-0.9,2c0,1.7,1.4,2.9,3.1,2.9
			c1.7,0,3.1-1.4,3.1-2.9S38,3.6,36.2,3.6 M7,3.6c-0.8,0-1.6,0.3-2.2,0.9C4.3,5.1,3.9,5.8,3.9,6.6c0,1.7,1.4,2.9,3.1,2.9
			s3.1-1.2,3.1-2.9S8.6,3.6,7,3.6 M7.3,22.1c5.8,0.6,9.9,0.8,14,0.8s8.3-0.3,14.6-0.8c0.2,0,0.5,0,0.5,0.2s0,0.5-0.1,0.6
			c-3.3,3.9-8.9,5.7-14.5,5.7c-5.8,0-11.7-1.9-14.8-5.6c-0.1-0.2-0.2-0.3-0.1-0.6C7,22.2,7.1,22.1,7.3,22.1z"/>
	</g>
</g>
</svg>
